<svg width="688" height="198" viewBox="0 0 688 198" fill="none" xmlns="http://www.w3.org/2000/svg">
<path d="M539.171 46.0317C540.911 52.0921 537.653 59.4275 529.902 67.5811C522.179 75.7057 510.119 84.5058 494.617 93.4464C463.618 111.324 418.954 129.706 367.973 144.343C316.991 158.981 269.379 167.094 233.618 168.385C215.733 169.03 200.842 167.968 189.985 165.178C179.089 162.379 172.436 157.889 170.696 151.829C168.956 145.768 172.214 138.433 179.965 130.279C187.688 122.155 199.748 113.354 215.25 104.414C246.249 86.5367 290.913 68.1547 341.895 53.517C392.876 38.8792 440.489 30.7664 476.249 29.4756C494.134 28.8301 509.025 29.8922 519.882 32.682C530.778 35.4817 537.431 39.9714 539.171 46.0317Z" stroke="url(#paint0_linear_1008_736)"/>
<g opacity="0.5" filter="url(#filter0_f_1008_736)">
<ellipse cx="344" cy="118.344" rx="324" ry="8" fill="url(#paint1_linear_1008_736)"/>
</g>
<defs>
<filter id="filter0_f_1008_736" x="0" y="90.3438" width="688" height="56" filterUnits="userSpaceOnUse" color-interpolation-filters="sRGB">
<feFlood flood-opacity="0" result="BackgroundImageFix"/>
<feBlend mode="normal" in="SourceGraphic" in2="BackgroundImageFix" result="shape"/>
<feGaussianBlur stdDeviation="10" result="effect1_foregroundBlur_1008_736"/>
</filter>
<linearGradient id="paint0_linear_1008_736" x1="166.533" y1="221.666" x2="170.814" y2="22.3895" gradientUnits="userSpaceOnUse">
<stop stop-color="#4AE6E6"/>
<stop offset="1" stop-color="#FC72FF" stop-opacity="0.06"/>
</linearGradient>
<linearGradient id="paint1_linear_1008_736" x1="125.333" y1="106.036" x2="129.134" y2="168.008" gradientUnits="userSpaceOnUse">
<stop stop-color="#4AE6E6"/>
<stop offset="1" stop-color="#FC72FF"/>
</linearGradient>
</defs>
</svg>
